<svg xmlns="http://www.w3.org/2000/svg" xmlns:xlink="http://www.w3.org/1999/xlink" contentStyleType="text/css" data-diagram-type="DESCRIPTION" height="915px" preserveAspectRatio="none" style="width:1672px;height:915px;" version="1.1" viewBox="0 0 1672 915" width="1672px" zoomAndPan="magnify"><?plantuml 1.2026.3?><defs/><g><g class="title" data-source-line="14"><text fill="#000000" font-family="Verdana" font-size="22" font-weight="700" lengthAdjust="spacing" textLength="488.4016" x="591.1988" y="37.4401">Turret &#8212; Deployment (Raspberry Pi 4B)</text></g><!--cluster Pi--><g class="cluster" data-qualified-name="Pi" data-source-line="16" id="ent0002"><polygon fill="#EEF2F7" points="21,272.0001,31,262.0001,1393,262.0001,1393,880.8401,1383,890.8401,21,890.8401,21,272.0001" style="stroke:#4A5568;stroke-width:1;"/><line style="stroke:#4A5568;stroke-width:1;" x1="1383" x2="1393" y1="272.0001" y2="262.0001"/><line style="stroke:#4A5568;stroke-width:1;" x1="21" x2="1383" y1="272.0001" y2="272.0001"/><line style="stroke:#4A5568;stroke-width:1;" x1="1383" x2="1383" y1="272.0001" y2="890.8401"/><text fill="#000000" font-family="Verdana" font-size="14" font-weight="700" lengthAdjust="spacing" textLength="352.7985" x="526.6008" y="289.28">Raspberry Pi 4B (aarch64, Raspberry Pi OS)</text></g><!--cluster SD--><g class="cluster" data-qualified-name="Pi.SD" data-source-line="17" id="ent0003"><polygon fill="#EEF2F7" points="363,330.0001,373,320.0001,787,320.0001,787,571.6801,777,581.6801,363,581.6801,363,330.0001" style="stroke:#4A5568;stroke-width:1;"/><line style="stroke:#4A5568;stroke-width:1;" x1="777" x2="787" y1="330.0001" y2="320.0001"/><line style="stroke:#4A5568;stroke-width:1;" x1="363" x2="777" y1="330.0001" y2="330.0001"/><line style="stroke:#4A5568;stroke-width:1;" x1="777" x2="777" y1="330.0001" y2="581.6801"/><text fill="#000000" font-family="Verdana" font-size="14" font-weight="700" lengthAdjust="spacing" textLength="58.7997" x="541.6001" y="347.28">systemd</text></g><!--cluster Dev--><g class="cluster" data-qualified-name="Dev" data-source-line="54" id="ent0035"><polygon fill="#EEF2F7" points="1301,71.0401,1311,61.0401,1469,61.0401,1469,176.0001,1459,186.0001,1301,186.0001,1301,71.0401" style="stroke:#4A5568;stroke-width:1;"/><line style="stroke:#4A5568;stroke-width:1;" x1="1459" x2="1469" y1="71.0401" y2="61.0401"/><line style="stroke:#4A5568;stroke-width:1;" x1="1301" x2="1459" y1="71.0401" y2="71.0401"/><line style="stroke:#4A5568;stroke-width:1;" x1="1459" x2="1459" y1="71.0401" y2="186.0001"/><text fill="#000000" font-family="Verdana" font-size="14" font-weight="700" lengthAdjust="spacing" textLength="92.3996" x="1334.8002" y="88.32">Dev machine</text></g><!--entity Camera--><g class="entity" data-qualified-name="Pi.Camera" data-source-line="23" id="ent0007"><rect fill="#FFFFFF" height="66.9598" rx="2.5" ry="2.5" style="stroke:#000000;stroke-width:1;" width="317.1988" x="134.4" y="653.9201"/><rect fill="#FFFFFF" height="10" style="stroke:#000000;stroke-width:1;" width="15" x="431.5988" y="658.9201"/><rect fill="#FFFFFF" height="2" style="stroke:#000000;stroke-width:1;" width="4" x="429.5988" y="660.9201"/><rect fill="#FFFFFF" height="2" style="stroke:#000000;stroke-width:1;" width="4" x="429.5988" y="664.9201"/><text fill="#000000" font-family="Verdana" font-size="14" lengthAdjust="spacing" textLength="83.9996" x="245.9996" y="688.2">CSI camera</text><text fill="#000000" font-family="Verdana" font-size="14" lengthAdjust="spacing" textLength="277.1988" x="149.4" y="706.68">(ov5647, via picamera2/libcamera)</text></g><!--entity Venv--><g class="entity" data-qualified-name="Pi.Venv" data-source-line="24" id="ent0008"><rect fill="#FFFFFF" height="66.9598" rx="2.5" ry="2.5" style="stroke:#000000;stroke-width:1;" width="241.5991" x="803.2" y="507.9601"/><rect fill="#FFFFFF" height="10" style="stroke:#000000;stroke-width:1;" width="15" x="1024.7991" y="512.9601"/><rect fill="#FFFFFF" height="2" style="stroke:#000000;stroke-width:1;" width="4" x="1022.7991" y="514.9601"/><rect fill="#FFFFFF" height="2" style="stroke:#000000;stroke-width:1;" width="4" x="1022.7991" y="518.9601"/><text fill="#000000" font-family="Verdana" font-size="14" lengthAdjust="spacing" textLength="151.1993" x="843.3999" y="542.24">turret Python venv</text><text fill="#000000" font-family="Verdana" font-size="14" lengthAdjust="spacing" textLength="201.5991" x="818.2" y="560.72">(--system-site-packages)</text></g><!--entity Cfg--><g class="entity" data-qualified-name="Pi.Cfg" data-source-line="26" id="ent0009"><path d="M486.2,673.6601 C486.2,663.6601 575.9997,663.6601 575.9997,663.6601 C575.9997,663.6601 665.7993,663.6601 665.7993,673.6601 L665.7993,701.14 C665.7993,711.14 575.9997,711.14 575.9997,711.14 C575.9997,711.14 486.2,711.14 486.2,701.14 L486.2,673.6601" fill="#F8FAFC" style="stroke:#4A5568;stroke-width:1;"/><path d="M486.2,673.6601 C486.2,683.6601 575.9997,683.6601 575.9997,683.6601 C575.9997,683.6601 665.7993,683.6601 665.7993,673.6601" fill="none" style="stroke:#4A5568;stroke-width:1;"/><text fill="#000000" font-family="Verdana" font-size="14" lengthAdjust="spacing" textLength="159.5993" x="496.2" y="701.94">config/default.yaml</text></g><!--entity TuneFile--><g class="entity" data-qualified-name="Pi.TuneFile" data-source-line="27" id="ent0010"><path d="M701.2,673.6601 C701.2,663.6601 811.9996,663.6601 811.9996,663.6601 C811.9996,663.6601 922.7991,663.6601 922.7991,673.6601 L922.7991,701.14 C922.7991,711.14 811.9996,711.14 811.9996,711.14 C811.9996,711.14 701.2,711.14 701.2,701.14 L701.2,673.6601" fill="#F8FAFC" style="stroke:#4A5568;stroke-width:1;"/><path d="M701.2,673.6601 C701.2,683.6601 811.9996,683.6601 811.9996,683.6601 C811.9996,683.6601 922.7991,683.6601 922.7991,673.6601" fill="none" style="stroke:#4A5568;stroke-width:1;"/><text fill="#000000" font-family="Verdana" font-size="14" lengthAdjust="spacing" textLength="201.5991" x="711.2" y="701.94">config/tuning.local.yaml</text></g><!--entity Db--><g class="entity" data-qualified-name="Pi.Db" data-source-line="28" id="ent0011"><path d="M957.8,664.4201 C957.8,654.4201 1034.9997,654.4201 1034.9997,654.4201 C1034.9997,654.4201 1112.1994,654.4201 1112.1994,664.4201 L1112.1994,710.3799 C1112.1994,720.3799 1034.9997,720.3799 1034.9997,720.3799 C1034.9997,720.3799 957.8,720.3799 957.8,710.3799 L957.8,664.4201" fill="#F8FAFC" style="stroke:#4A5568;stroke-width:1;"/><path d="M957.8,664.4201 C957.8,674.4201 1034.9997,674.4201 1034.9997,674.4201 C1034.9997,674.4201 1112.1994,674.4201 1112.1994,664.4201" fill="none" style="stroke:#4A5568;stroke-width:1;"/><text fill="#000000" font-family="Verdana" font-size="14" lengthAdjust="spacing" textLength="134.3994" x="967.8" y="692.7">turret_events.db</text><text fill="#000000" font-family="Verdana" font-size="14" lengthAdjust="spacing" textLength="67.1997" x="1001.3999" y="711.18">(SQLite)</text></g><!--entity Models--><g class="entity" data-qualified-name="Pi.Models" data-source-line="29" id="ent0012"><path d="M1147.4,664.4201 C1147.4,654.4201 1253.9996,654.4201 1253.9996,654.4201 C1253.9996,654.4201 1360.5992,654.4201 1360.5992,664.4201 L1360.5992,710.3799 C1360.5992,720.3799 1253.9996,720.3799 1253.9996,720.3799 C1253.9996,720.3799 1147.4,720.3799 1147.4,710.3799 L1147.4,664.4201" fill="#F8FAFC" style="stroke:#4A5568;stroke-width:1;"/><path d="M1147.4,664.4201 C1147.4,674.4201 1253.9996,674.4201 1253.9996,674.4201 C1253.9996,674.4201 1360.5992,674.4201 1360.5992,664.4201" fill="none" style="stroke:#4A5568;stroke-width:1;"/><text fill="#000000" font-family="Verdana" font-size="14" lengthAdjust="spacing" textLength="58.7997" x="1224.5997" y="692.7">models/</text><text fill="#000000" font-family="Verdana" font-size="14" lengthAdjust="spacing" textLength="193.1992" x="1157.4" y="711.18">(tflite + onnx weights)</text></g><!--entity GPIO--><g class="entity" data-qualified-name="Pi.GPIO" data-source-line="39" id="ent0020"><ellipse cx="72" cy="687.4001" fill="#FFFFFF" rx="8" ry="8" style="stroke:#000000;stroke-width:1;"/><text fill="#000000" font-family="Verdana" font-size="14" lengthAdjust="spacing" textLength="33.5999" x="55.2001" y="718.68">GPIO</text></g><!--entity Yaw servo\n(pin 17)--><g class="entity" data-qualified-name="Pi.Yaw servo.n.pin 17." data-source-line="40" id="ent0022"><rect fill="#FFFFFF" height="66.9598" rx="2.5" ry="2.5" style="stroke:#000000;stroke-width:1;" width="115.5997" x="45.2" y="799.8801"/><rect fill="#FFFFFF" height="10" style="stroke:#000000;stroke-width:1;" width="15" x="140.7997" y="804.8801"/><rect fill="#FFFFFF" height="2" style="stroke:#000000;stroke-width:1;" width="4" x="138.7997" y="806.8801"/><rect fill="#FFFFFF" height="2" style="stroke:#000000;stroke-width:1;" width="4" x="138.7997" y="810.8801"/><text fill="#000000" font-family="Verdana" font-size="14" lengthAdjust="spacing" textLength="75.5997" x="60.2" y="834.16">Yaw servo</text><text fill="#000000" font-family="Verdana" font-size="14" lengthAdjust="spacing" textLength="67.1997" x="64.4" y="852.64">(pin 17)</text></g><!--entity Pitch servo\n(pin 27)--><g class="entity" data-qualified-name="Pi.Pitch servo.n.pin 27." data-source-line="41" id="ent0024"><rect fill="#FFFFFF" height="66.9598" rx="2.5" ry="2.5" style="stroke:#000000;stroke-width:1;" width="132.3996" x="195.8" y="799.8801"/><rect fill="#FFFFFF" height="10" style="stroke:#000000;stroke-width:1;" width="15" x="308.1996" y="804.8801"/><rect fill="#FFFFFF" height="2" style="stroke:#000000;stroke-width:1;" width="4" x="306.1996" y="806.8801"/><rect fill="#FFFFFF" height="2" style="stroke:#000000;stroke-width:1;" width="4" x="306.1996" y="810.8801"/><text fill="#000000" font-family="Verdana" font-size="14" lengthAdjust="spacing" textLength="92.3996" x="210.8" y="834.16">Pitch servo</text><text fill="#000000" font-family="Verdana" font-size="14" lengthAdjust="spacing" textLength="67.1997" x="223.3999" y="852.64">(pin 27)</text></g><!--entity Roll/trigger servo\n(pin 5)--><g class="entity" data-qualified-name="Pi.Roll.trigger servo.n.pin 5." data-source-line="42" id="ent0026"><rect fill="#FFFFFF" height="66.9598" rx="2.5" ry="2.5" style="stroke:#000000;stroke-width:1;" width="191.1993" x="363.4" y="799.8801"/><rect fill="#FFFFFF" height="10" style="stroke:#000000;stroke-width:1;" width="15" x="534.5993" y="804.8801"/><rect fill="#FFFFFF" height="2" style="stroke:#000000;stroke-width:1;" width="4" x="532.5993" y="806.8801"/><rect fill="#FFFFFF" height="2" style="stroke:#000000;stroke-width:1;" width="4" x="532.5993" y="810.8801"/><text fill="#000000" font-family="Verdana" font-size="14" lengthAdjust="spacing" textLength="151.1993" x="378.4" y="834.16">Roll/trigger servo</text><text fill="#000000" font-family="Verdana" font-size="14" lengthAdjust="spacing" textLength="58.7997" x="424.5998" y="852.64">(pin 5)</text></g><!--entity Pigpiod--><g class="entity" data-qualified-name="Pi.SD.Pigpiod" data-source-line="18" id="ent0004"><rect fill="#FFFFFF" height="48.4799" rx="2.5" ry="2.5" style="stroke:#000000;stroke-width:1;" width="165.9995" x="381" y="517.2001"/><rect fill="#FFFFFF" height="10" style="stroke:#000000;stroke-width:1;" width="15" x="526.9995" y="522.2001"/><rect fill="#FFFFFF" height="2" style="stroke:#000000;stroke-width:1;" width="4" x="524.9995" y="524.2001"/><rect fill="#FFFFFF" height="2" style="stroke:#000000;stroke-width:1;" width="4" x="524.9995" y="528.2001"/><text fill="#000000" font-family="Verdana" font-size="14" lengthAdjust="spacing" textLength="125.9995" x="396" y="551.48">pigpiod.service</text></g><!--entity TurretSvc--><g class="entity" data-qualified-name="Pi.SD.TurretSvc" data-source-line="19" id="ent0005"><rect fill="#FFFFFF" height="66.9598" rx="2.5" ry="2.5" style="stroke:#000000;stroke-width:1;" width="174.3994" x="378.8" y="362.0001"/><rect fill="#FFFFFF" height="10" style="stroke:#000000;stroke-width:1;" width="15" x="533.1994" y="367.0001"/><rect fill="#FFFFFF" height="2" style="stroke:#000000;stroke-width:1;" width="4" x="531.1994" y="369.0001"/><rect fill="#FFFFFF" height="2" style="stroke:#000000;stroke-width:1;" width="4" x="531.1994" y="373.0001"/><text fill="#000000" font-family="Verdana" font-size="14" lengthAdjust="spacing" textLength="117.5995" x="402.2" y="396.28">turret.service</text><text fill="#000000" font-family="Verdana" font-size="14" lengthAdjust="spacing" textLength="134.3994" x="393.8" y="414.76">(Restart=always)</text></g><!--entity APSvc--><g class="entity" data-qualified-name="Pi.SD.APSvc" data-source-line="20" id="ent0006"><rect fill="#FFFFFF" height="48.4799" rx="2.5" ry="2.5" style="stroke:#000000;stroke-width:1;" width="182.7994" x="588.6" y="371.2401"/><rect fill="#FFFFFF" height="10" style="stroke:#000000;stroke-width:1;" width="15" x="751.3994" y="376.2401"/><rect fill="#FFFFFF" height="2" style="stroke:#000000;stroke-width:1;" width="4" x="749.3994" y="378.2401"/><rect fill="#FFFFFF" height="2" style="stroke:#000000;stroke-width:1;" width="4" x="749.3994" y="382.2401"/><text fill="#000000" font-family="Verdana" font-size="14" lengthAdjust="spacing" textLength="142.7994" x="603.6" y="405.52">turret-ap.service</text></g><!--entity DevTools--><g class="entity" data-qualified-name="Dev.DevTools" data-source-line="55" id="ent0036"><rect fill="#FFFFFF" height="66.9598" rx="2.5" ry="2.5" style="stroke:#000000;stroke-width:1;" width="132.3996" x="1318.8" y="103.0401"/><rect fill="#FFFFFF" height="10" style="stroke:#000000;stroke-width:1;" width="15" x="1431.1996" y="108.0401"/><rect fill="#FFFFFF" height="2" style="stroke:#000000;stroke-width:1;" width="4" x="1429.1996" y="110.0401"/><rect fill="#FFFFFF" height="2" style="stroke:#000000;stroke-width:1;" width="4" x="1429.1996" y="114.0401"/><text fill="#000000" font-family="Verdana" font-size="14" lengthAdjust="spacing" textLength="92.3996" x="1333.8" y="137.32">git / rsync</text><text fill="#000000" font-family="Verdana" font-size="14" lengthAdjust="spacing" textLength="67.1997" x="1346.3999" y="155.8">over SSH</text></g><!--entity Virtual WiFi AP\n(alongside wlan0 uplink)--><g class="entity" data-qualified-name="Virtual WiFi AP.n.alongside wlan0 uplink." data-source-line="45" id="ent0028"><rect fill="#FFFFFF" height="66.9598" rx="2.5" ry="2.5" style="stroke:#000000;stroke-width:1;" width="241.5991" x="1417.2" y="507.9601"/><rect fill="#FFFFFF" height="10" style="stroke:#000000;stroke-width:1;" width="15" x="1638.7991" y="512.9601"/><rect fill="#FFFFFF" height="2" style="stroke:#000000;stroke-width:1;" width="4" x="1636.7991" y="514.9601"/><rect fill="#FFFFFF" height="2" style="stroke:#000000;stroke-width:1;" width="4" x="1636.7991" y="518.9601"/><text fill="#000000" font-family="Verdana" font-size="14" lengthAdjust="spacing" textLength="125.9995" x="1469.9998" y="542.24">Virtual WiFi AP</text><text fill="#000000" font-family="Verdana" font-size="14" lengthAdjust="spacing" textLength="201.5991" x="1432.2" y="560.72">(alongside wlan0 uplink)</text></g><!--entity Net--><g class="entity" data-qualified-name="Net" data-source-line="47" id="ent0030"><path d="M1483.1199,672.8385 C1485.1417,666.0437 1491.0181,663.9259 1496.1973,669.5004 C1497.3697,662.6709 1502.9638,660.2621 1508.0642,665.7009 C1510.8086,658.9402 1514.9992,658.6189 1519.9198,663.4811 C1525.2754,658.9329 1529.3812,659.9794 1531.1711,666.9607 C1537.4035,661.4458 1541.0774,663.7078 1543.9461,670.4628 C1547.558,665.3615 1552.5943,666.0516 1555.432,671.3203 C1565.2447,675.9028 1564.9777,681.3955 1558.2744,688.682 C1564.3733,694.1974 1563.7338,699.6202 1556.8682,703.941 C1555.0516,711.3706 1549.2448,712.1136 1544.6055,706.6193 C1541.4177,713.8727 1536.75,714.1548 1532.016,708.0799 C1529.4687,714.6297 1524.5612,714.9022 1520.6782,709.3291 C1515.5755,716.5716 1511.5046,714.602 1506.9672,708.7378 C1503.138,714.5439 1497.4137,714.1699 1495.0132,707.3818 C1490.5219,712.0988 1485.694,710.0213 1484.5445,704.0948 C1475.8671,700.7602 1474.1693,695.4304 1479.0146,687.5704 C1474.2522,680.9241 1473.9247,675.5953 1483.1199,672.8385" fill="#FFFFFF" style="stroke:#000000;stroke-width:1;"/><text fill="#000000" font-family="Verdana" font-size="14" lengthAdjust="spacing" textLength="58.7997" x="1489.6" y="692.44">Network</text></g><!--entity Browser--><g class="entity" data-qualified-name="Browser" data-source-line="51" id="ent0033"><polygon fill="#EEF2F7" points="1436,809.8801,1446,799.8801,1601.9995,799.8801,1601.9995,856.8399,1591.9995,866.8399,1436,866.8399,1436,809.8801" style="stroke:#4A5568;stroke-width:1;"/><line style="stroke:#4A5568;stroke-width:1;" x1="1591.9995" x2="1601.9995" y1="809.8801" y2="799.8801"/><line style="stroke:#4A5568;stroke-width:1;" x1="1436" x2="1591.9995" y1="809.8801" y2="809.8801"/><line style="stroke:#4A5568;stroke-width:1;" x1="1591.9995" x2="1591.9995" y1="809.8801" y2="866.8399"/><text fill="#000000" font-family="Verdana" font-size="14" lengthAdjust="spacing" textLength="25.1999" x="1467.7999" y="834.16">Any</text><text fill="#000000" font-family="Verdana" font-size="14" lengthAdjust="spacing" textLength="8.4" x="1492.9998" y="834.16">&#160;</text><text fill="#000000" font-family="Verdana" font-size="14" lengthAdjust="spacing" textLength="58.7997" x="1501.3998" y="834.16">browser</text><text fill="#000000" font-family="Verdana" font-size="14" lengthAdjust="spacing" textLength="58.7997" x="1451" y="852.64">(phone,</text><text fill="#000000" font-family="Verdana" font-size="14" lengthAdjust="spacing" textLength="8.4" x="1509.7997" y="852.64">&#160;</text><text fill="#000000" font-family="Verdana" font-size="14" lengthAdjust="spacing" textLength="58.7997" x="1518.1997" y="852.64">laptop)</text></g><!--link TurretSvc to Venv--><g class="link" data-entity-1="ent0005" data-entity-2="ent0008" data-link-type="dependency" data-source-line="31" id="lnk13"><path d="M553.49,423.9801 C629.18,447.7701 733.0561,480.4211 813.4261,505.6811" fill="none" id="TurretSvc-to-Venv" style="stroke:#000000;stroke-width:1;"/><polygon fill="#000000" points="819.15,507.4801,811.7634,500.9656,814.38,505.9809,809.3647,508.5975,819.15,507.4801" style="stroke:#000000;stroke-width:1;"/><text fill="#000000" font-family="Verdana" font-size="13" lengthAdjust="spacing" textLength="70.2" x="723.42" y="473.2201">ExecStart</text></g><!--link TurretSvc to Pigpiod--><g class="link" data-entity-1="ent0005" data-entity-2="ent0004" data-link-type="dependency" data-source-line="32" id="lnk14"><path d="M423.36,429.3401 C415.08,438.0001 407.56,448.0101 403,458.9601 C394.03,480.4901 405.9474,497.6072 424.0274,512.8872" fill="none" id="TurretSvc-to-Pigpiod" style="stroke:#000000;stroke-width:1;stroke-dasharray:7,7;"/><polygon fill="#000000" points="428.61,516.7601,424.318,507.8956,424.7911,513.5327,419.1541,514.0058,428.61,516.7601" style="stroke:#000000;stroke-width:1;"/><text fill="#000000" font-family="Verdana" font-size="13" lengthAdjust="spacing" textLength="70.2" x="404" y="473.2201">Requires=</text></g><!--link Venv to Camera--><g class="link" data-entity-1="ent0008" data-entity-2="ent0007" data-link-type="dependency" data-source-line="33" id="lnk15"><path d="M837.87,575.3801 C821.18,580.8401 803.69,585.9301 787,589.6801 C726.79,603.2101 709.84,594.6301 649,604.9201 C572.57,617.8401 493.7887,635.5766 426.2287,652.0766" fill="none" id="Venv-to-Camera" style="stroke:#000000;stroke-width:1;"/><polygon fill="#000000" points="420.4,653.5001,430.092,655.2506,425.2572,652.3138,428.194,647.479,420.4,653.5001" style="stroke:#000000;stroke-width:1;"/><text fill="#000000" font-family="Verdana" font-size="13" lengthAdjust="spacing" textLength="70.2" x="650" y="619.1801">picamera2</text></g><!--link Venv to Cfg--><g class="link" data-entity-1="ent0008" data-entity-2="ent0009" data-link-type="dependency" data-source-line="34" id="lnk16"><path d="M844.6,575.2901 C779.7,602.1301 695.1344,637.1166 637.5744,660.9266" fill="none" id="Venv-to-Cfg" style="stroke:#000000;stroke-width:1;"/><polygon fill="#000000" points="632.03,663.2201,641.8755,663.4762,636.6503,661.3089,638.8176,656.0837,632.03,663.2201" style="stroke:#000000;stroke-width:1;"/></g><!--link Venv to TuneFile--><g class="link" data-entity-1="ent0008" data-entity-2="ent0010" data-link-type="dependency" data-source-line="35" id="lnk17"><path d="M898.59,575.1101 C877.67,601.9901 852.2442,634.6744 833.6742,658.5444" fill="none" id="Venv-to-TuneFile" style="stroke:#000000;stroke-width:1;"/><polygon fill="#000000" points="829.99,663.2801,838.6734,658.6327,833.0602,659.3337,832.3592,653.7204,829.99,663.2801" style="stroke:#000000;stroke-width:1;"/></g><!--link Venv to Db--><g class="link" data-entity-1="ent0008" data-entity-2="ent0011" data-link-type="dependency" data-source-line="36" id="lnk18"><path d="M949.19,575.1101 C967.48,598.8301 988.4465,626.0284 1006.6265,649.6084" fill="none" id="Venv-to-Db" style="stroke:#000000;stroke-width:1;"/><polygon fill="#000000" points="1010.29,654.3601,1007.9625,644.7902,1007.2371,650.4003,1001.6269,649.6749,1010.29,654.3601" style="stroke:#000000;stroke-width:1;"/></g><!--link Venv to Models--><g class="link" data-entity-1="ent0008" data-entity-2="ent0012" data-link-type="dependency" data-source-line="37" id="lnk19"><path d="M999.3,575.2901 C1053.32,598.8501 1120.2806,628.0609 1174.1006,651.5409" fill="none" id="Venv-to-Models" style="stroke:#000000;stroke-width:1;"/><polygon fill="#000000" points="1179.6,653.9401,1172.9503,646.675,1175.0171,651.9407,1169.7514,654.0075,1179.6,653.9401" style="stroke:#000000;stroke-width:1;"/></g><!--link Pigpiod to GPIO--><g class="link" data-entity-1="ent0004" data-entity-2="ent0020" data-link-type="dependency" data-source-line="39" id="lnk21"><path d="M380.51,561.3801 C308.37,579.5701 202.55,610.6701 117,653.9201 C103.41,660.7901 94.0745,667.7153 85.3745,674.9453" fill="none" id="Pigpiod-to-GPIO" style="stroke:#000000;stroke-width:1;"/><polygon fill="#000000" points="80.76,678.7801,90.2384,676.1042,84.6055,675.5844,85.1252,669.9515,80.76,678.7801" style="stroke:#000000;stroke-width:1;"/></g><!--link GPIO to Yaw servo\n(pin 17)--><g class="link" data-entity-1="ent0020" data-entity-2="ent0022" data-link-type="dependency" data-source-line="40" id="lnk23"><path d="M73.67,696.1401 C77.79,715.3001 87.4064,759.9447 94.6964,793.7847" fill="none" id="GPIO-to-Yaw servo\n(pin 17)" style="stroke:#000000;stroke-width:1;"/><polygon fill="#000000" points="95.96,799.6501,97.9749,790.0096,94.907,794.7622,90.1544,791.6943,95.96,799.6501" style="stroke:#000000;stroke-width:1;"/></g><!--link GPIO to Pitch servo\n(pin 27)--><g class="link" data-entity-1="ent0020" data-entity-2="ent0024" data-link-type="dependency" data-source-line="41" id="lnk25"><path d="M80.91,695.1501 C105.12,713.4901 168.5679,761.5664 214.0179,796.0064" fill="none" id="GPIO-to-Pitch servo\n(pin 27)" style="stroke:#000000;stroke-width:1;"/><polygon fill="#000000" points="218.8,799.6301,214.0426,791.0065,214.8149,796.6104,209.211,797.3826,218.8,799.6301" style="stroke:#000000;stroke-width:1;"/></g><!--link GPIO to Roll/trigger servo\n(pin 5)--><g class="link" data-entity-1="ent0020" data-entity-2="ent0026" data-link-type="dependency" data-source-line="42" id="lnk27"><path d="M80.77,696.0001 C89.47,703.2301 103.43,713.9801 117,720.8801 C160.43,742.9501 272.1666,777.8178 357.3366,803.0178" fill="none" id="GPIO-to-Roll/trigger servo\n(pin 5)" style="stroke:#000000;stroke-width:1;"/><polygon fill="#000000" points="363.09,804.7201,355.5947,798.331,358.2955,803.3015,353.325,806.0022,363.09,804.7201" style="stroke:#000000;stroke-width:1;"/></g><!--link APSvc to Virtual WiFi AP\n(alongside wlan0 uplink)--><g class="link" data-entity-1="ent0006" data-entity-2="ent0028" data-link-type="dependency" data-source-line="45" id="lnk29"><path d="M743.63,420.1701 C754.01,423.4801 764.73,426.5601 775,428.9601 C1037.75,490.4701 1110.81,463.7001 1377,507.9601 C1389.94,510.1101 1397.5339,511.4285 1410.9539,513.9585" fill="none" id="APSvc-to-Virtual WiFi AP\n(alongside wlan0 uplink)" style="stroke:#000000;stroke-width:1;"/><polygon fill="#000000" points="1416.85,515.0701,1408.7468,509.472,1411.9366,514.1438,1407.2648,517.3335,1416.85,515.0701" style="stroke:#000000;stroke-width:1;"/></g><!--link Virtual WiFi AP\n(alongside wlan0 uplink) to Net--><g class="link" data-entity-1="ent0028" data-entity-2="ent0030" data-link-type="dependency" data-source-line="48" id="lnk31"><path d="M1533.69,575.1101 C1530.16,601.8201 1526.0447,633.0016 1522.8947,656.8816" fill="none" id="Virtual WiFi AP\n(alongside wlan0 uplink)-to-Net" style="stroke:#000000;stroke-width:1;"/><polygon fill="#000000" points="1522.11,662.8301,1527.2526,654.4305,1522.7639,657.873,1519.3213,653.3843,1522.11,662.8301" style="stroke:#000000;stroke-width:1;"/></g><!--link Venv to Net--><g class="link" data-entity-1="ent0008" data-entity-2="ent0030" data-link-type="dependency" data-source-line="49" id="lnk32"><path d="M1045.12,571.7501 C1177.98,603.8901 1378.4482,652.3996 1468.5382,674.1896" fill="none" id="Venv-to-Net" style="stroke:#000000;stroke-width:1;"/><polygon fill="#000000" points="1474.37,675.6001,1466.5626,669.5964,1469.5101,674.4246,1464.6819,677.3722,1474.37,675.6001" style="stroke:#000000;stroke-width:1;"/><text fill="#000000" font-family="Verdana" font-size="13" lengthAdjust="spacing" textLength="117" x="1258.12" y="619.1801">dashboard :8080</text></g><!--link Net to Browser--><g class="link" data-entity-1="ent0030" data-entity-2="ent0033" data-link-type="dependency" data-source-line="52" id="lnk34"><path d="M1519,711.8501 C1519,735.6701 1519,766.7701 1519,793.5101" fill="none" id="Net-to-Browser" style="stroke:#000000;stroke-width:1;"/><polygon fill="#000000" points="1519,799.5101,1523,790.5101,1519,794.5101,1515,790.5101,1519,799.5101" style="stroke:#000000;stroke-width:1;"/><text fill="#000000" font-family="Verdana" font-size="13" lengthAdjust="spacing" textLength="124.8" x="1520" y="765.1401">http://&lt;pi&gt;:8080</text></g><!--link DevTools to Pi--><g class="link" data-entity-1="ent0036" data-entity-2="ent0002" data-link-type="dependency" data-source-line="57" id="lnk37"><path d="M1385,170.3301 C1385,187.3776 1385,209.6095 1385,233.4417 C1385,239.3997 1385,245.4578 1385,251.5599 C1385,254.6109 1385,257.6729 1385,260.739 C1385,261.1223 1385,255.5056 1385,255.8889" fill="none" id="DevTools-to-Pi" style="stroke:#000000;stroke-width:1;"/><polygon fill="#000000" points="1385,261.8889,1389,252.8889,1385,256.8889,1381,252.8889,1385,261.8889" style="stroke:#000000;stroke-width:1;"/><text fill="#000000" font-family="Verdana" font-size="13" lengthAdjust="spacing" textLength="109.2" x="1421.1" y="216.2601">deploy (rsync;</text><text fill="#000000" font-family="Verdana" font-size="13" lengthAdjust="spacing" textLength="179.4001" x="1386" y="233.4201">no git creds on the Pi)</text></g><?plantuml-src bLNRJXin47tVhvY65r19Gb6uY1OaBgL5QakQH5GLLDLaTtRNmcjlRMz2X93w4Vt2Vad7tYHaAI-yW3rpPiwPYpUlN4u5GIbHgCZU2bMYmGB66DzcHbSgETLI6t06bMKNARU2iZacUYfK1YbAIokUX5Aif1lHdJkM8bC51qBCVyYie9HE2EuZW1Dj4Z8rrLeFTtPszxtrYOWredGxtOiULedGuHZjYzAa-occCQU9d72IO5GPGmx-_lu3PrHAFGjgrmTeop4PCuE-WDx9HXG5lQqdTbX7D76-szk4XkTokD42jFxejTMnTcOT5Kbm3C-20o3MHQcLvsoL8Yk5JZgMp4J4D4yGR4-XBgXU86_K-e2iG-CEKKvnPclokhJX97u-kerbW-guNqEvDGtqwV02OYp88FFeoSvkRsyJ9WAX5BLvkol5k3xMnAVX73t32VsPoxM22Qa9PsktwvwqhN3KBdbMcD5S_HL3l9Bba5knLgd8klFrwioma3LTcZs7SvNYxUn87QDy18ygHUT2KYEY5lUJM9QpdMJCqePVFx6cMihPk84kU9hITXdaKiaWU0rQgJkOaiXoDvV_EO1y0SinGBjz5Cg20tX_H_7GJwm1w7IE5XDdp81-LSAGFMHC2FFnTM_Pk-n-mnjQiRok5BkqXMAMjqUP2rvl_T2_k6IJ_mTjVkMARTVVSGf-NpGNNWe5R_OsVlm7wWiNvmtOzdEmWPQowup8CZ8Dz0w3UG73BWOfrrV2k0ebV1FdWdUKSIYrogpW9pMLgBQWAgLGjnmOnL9N2RI-a9jgSnlcmEVe1Ja2fuzPTeWltEq4RJxMQ7Wk-rlxMulFmR6QmTZeAPVW2-3LfasGM3fTrcjmKZiZdyLdczyvO-vSUT3jlYl5KIFb6KsWm3WNgdwM_dxVV4kPSD05OsSglb5wmkc6muyBy4Xh7kX3j3W6MluESGtX-mRh8V3jZL8QVAROK69vWu5_3HYu4Vq3?></g></svg>